<?xml version="1.0" encoding="utf-8"?>
<!-- Generator: Adobe Illustrator 17.0.0, SVG Export Plug-In . SVG Version: 6.00 Build 0)  -->
<svg version="1.2" baseProfile="tiny" id="Layer_1" xmlns="http://www.w3.org/2000/svg" xmlns:xlink="http://www.w3.org/1999/xlink"
	 x="0px" y="0px" width="32px" height="32px" viewBox="0 0 144 144" xml:space="preserve">
<g>
	<polygon fill="#F8C562" stroke="#46220E" stroke-width="2" stroke-miterlimit="10" points="43.26,27.374 60.674,15.102 
		86.018,19.256 86.018,87.354 114.52,87.354 114.328,137.833 33.366,137.833 33.366,87.354 61.273,87.354 61.273,43.608 
		49.396,49.546 	"/>
	<path fill="#46220E" d="M43.26,26.582c0,0-10.688,3.759-10.688,9.699c0,5.938,2.969,22.374,16.824,14.056L43.26,26.582z"/>
	<polygon fill="#46220E" points="66.694,16.147 68.525,8.965 72.322,9.31 70.544,16.607 	"/>
	<polygon fill="#46220E" points="74.97,17.59 77.191,9.668 80.585,10.043 78.815,18.097 	"/>
	
		<rect x="68.034" y="3.718" transform="matrix(0.9843 0.1765 -0.1765 0.9843 2.266 -12.4012)" fill="#46220E" width="5.642" height="5.642"/>
	<polygon fill="#46220E" points="81.358,11.246 75.803,10.25 76.801,4.697 82.348,5.698 	"/>
	
		<rect x="52.55" y="26.239" transform="matrix(0.9842 0.1768 -0.1768 0.9842 6.0102 -9.3316)" fill="#46220E" width="5.639" height="5.643"/>
	<polygon fill="#F8C562" points="35.736,36.734 36.135,39.258 39.697,36.666 39.303,33.908 	"/>
	<polyline fill="none" stroke="#46220E" stroke-width="2" stroke-miterlimit="10" points="66.694,32.722 74.536,38.264 
		79.075,29.751 71.368,24.406 	"/>
	<polygon fill="#46220E" points="68.204,27.374 66.694,29.751 72.757,33.908 74.562,31.333 	"/>
	<polygon fill="#46220E" points="61.668,61.226 61.668,67.163 66.694,68.747 67.58,60.236 	"/>
	<polygon fill="#46220E" points="79.075,55.483 86.018,57.067 84.431,67.365 79.075,66.573 	"/>
	<polygon fill="#46220E" points="65.627,74.879 71.368,70.525 72.279,85.966 65.627,84.187 	"/>
	<polygon fill="#46220E" points="34.16,104.18 41.281,99.241 41.281,112.099 34.16,110.516 	"/>
	<polygon fill="#46220E" points="41.677,125.562 41.677,130.698 49.591,132.282 48.411,121.998 	"/>
	<polygon fill="#46220E" points="61.668,113.284 61.668,122.992 69.51,125.751 68.396,111.904 	"/>
	<polygon fill="#46220E" points="74.127,92.099 74.536,101.811 82.348,100.412 82.547,94.29 	"/>
	<polygon fill="#46220E" points="86.219,125.562 87.208,134.27 95.713,132.677 95.713,122.198 	"/>
	<polygon fill="#46220E" points="100.868,102.005 97.502,112.89 105.026,112.89 107.594,104.97 	"/>
</g>
</svg>
